<?xml version="1.0" encoding="UTF-8"?>
<svg width="289px" height="118px" viewBox="0 0 289 118" version="1.1" xmlns="http://www.w3.org/2000/svg" xmlns:xlink="http://www.w3.org/1999/xlink">
    <title>Archethic Logo - Gradient</title>
    <defs>
        <linearGradient x1="3.94901683%" y1="70.2946817%" x2="62.7458568%" y2="19.3357929%" id="linearGradient-1">
            <stop stop-color="#00A4DB" offset="0%"></stop>
            <stop stop-color="#CC00FF" offset="100%"></stop>
        </linearGradient>
        <linearGradient x1="-8.15998999%" y1="50.3607943%" x2="66.0973524%" y2="49.4548585%" id="linearGradient-2">
            <stop stop-color="#00A4DB" offset="0%"></stop>
            <stop stop-color="#CC00FF" offset="100%"></stop>
        </linearGradient>
        <linearGradient x1="-8.15998999%" y1="50.7541644%" x2="66.0973524%" y2="48.8604969%" id="linearGradient-3">
            <stop stop-color="#00A4DB" offset="0%"></stop>
            <stop stop-color="#CC00FF" offset="100%"></stop>
        </linearGradient>
        <linearGradient x1="-8.15998999%" y1="51.0690023%" x2="66.0973524%" y2="48.3847932%" id="linearGradient-4">
            <stop stop-color="#00A4DB" offset="0%"></stop>
            <stop stop-color="#CC00FF" offset="100%"></stop>
        </linearGradient>
        <linearGradient x1="-8.15998999%" y1="58.450506%" x2="66.0973524%" y2="37.2317255%" id="linearGradient-5">
            <stop stop-color="#00A4DB" offset="0%"></stop>
            <stop stop-color="#CC00FF" offset="100%"></stop>
        </linearGradient>
        <linearGradient x1="13.7694298%" y1="70.2946817%" x2="60.0277915%" y2="19.3357929%" id="linearGradient-6">
            <stop stop-color="#00A4DB" offset="0%"></stop>
            <stop stop-color="#CC00FF" offset="100%"></stop>
        </linearGradient>
        <linearGradient x1="16.65189%" y1="70.2946817%" x2="59.2299926%" y2="19.3357929%" id="linearGradient-7">
            <stop stop-color="#00A4DB" offset="0%"></stop>
            <stop stop-color="#CC00FF" offset="100%"></stop>
        </linearGradient>
    </defs>
    <g id="Validated-logos" stroke="none" stroke-width="1" fill="none" fill-rule="evenodd">
        <g id="Validated-Logo" transform="translate(-1142.000000, -943.000000)">
            <g id="Archethic-Logo" transform="translate(1142.000000, 943.000000)">
                <g id="AE" transform="translate(103.000000, 0.000000)">
                    <path d="M97.4069019,118 C100.142839,118 102.24951,116.87619 103.726916,114.628571 C105.204322,112.326132 105.395838,109.941463 104.301463,107.474564 L59.3226599,4.52264808 C58.0094102,1.50754936 55.7112232,0 52.4280989,0 C49.1996933,0 46.9288656,1.50754936 45.6156159,4.52264808 L0.636812904,107.474564 C-0.183968172,109.393264 -0.211327542,111.311963 0.554734797,113.230662 C1.2660784,115.149361 2.57932812,116.519861 4.49448397,117.34216 C5.47942126,117.78072 6.49171792,118 7.53137395,118 C10.7597795,118 13.0306072,116.492451 14.3438569,113.477352 L52.4280989,26.2313589 L85.9980449,102.951916 L41.7579449,102.951916 C39.6786328,102.951916 37.9002738,103.691986 36.4228679,105.172125 C35.0001807,106.652265 34.2888371,108.433914 34.2888371,110.517073 C34.2888371,112.545412 35.0001807,114.299652 36.4228679,115.779791 C37.9002738,117.25993 39.6786328,118 41.7579449,118 L97.4069019,118 Z" id="Path" fill="url(#linearGradient-1)"></path>
                    <path d="M176.747126,14 C179.295019,14 181.474138,13.3114754 183.284483,11.9344262 C185.094828,10.557377 186,8.89981785 186,6.96174863 C186,5.07468124 185.094828,3.44262295 183.284483,2.06557377 C181.474138,0.68852459 179.295019,0 176.747126,0 L90.1522989,0 C87.6044061,0 85.4588123,0.68852459 83.7155172,2.06557377 C81.9051724,3.44262295 81,5.07468124 81,6.96174863 C81,8.89981785 81.9051724,10.557377 83.7155172,11.9344262 C85.4588123,13.3114754 87.6044061,14 90.1522989,14 L176.747126,14 Z" id="Path" fill="url(#linearGradient-2)"></path>
                    <path d="M177.685824,67 C179.699872,67 181.422414,66.2131148 182.853448,64.6393443 C184.284483,63.0655738 185,61.2003643 185,59.0437158 C185,56.8287796 184.284483,54.9344262 182.853448,53.3606557 C181.422414,51.7868852 179.699872,51 177.685824,51 L109.234674,51 C107.220626,51 105.524585,51.7868852 104.146552,53.3606557 C102.715517,54.9344262 102,56.8287796 102,59.0437158 C102,61.2003643 102.715517,63.0655738 104.146552,64.6393443 C105.524585,66.2131148 107.220626,67 109.234674,67 L177.685824,67 Z" id="Path" fill="url(#linearGradient-3)"></path>
                    <path d="M179.624521,118 C181.104725,118 182.37069,117.311475 183.422414,115.934426 C184.474138,114.608379 185,112.976321 185,111.038251 C185,109.100182 184.474138,107.442623 183.422414,106.065574 C182.37069,104.688525 181.104725,104 179.624521,104 L129.31705,104 C127.836845,104 126.590358,104.688525 125.577586,106.065574 C124.525862,107.442623 124,109.100182 124,111.038251 C124,112.976321 124.525862,114.608379 125.577586,115.934426 C126.590358,117.311475 127.836845,118 129.31705,118 L179.624521,118 Z" id="Path" fill="url(#linearGradient-4)"></path>
                </g>
                <g id="Logo" fill-rule="nonzero">
                    <path d="M30.2966327,16.3982085 C31.544474,16.1434428 35.4088723,15.4025483 40.3332198,15.4531317 C48.4079724,15.5361682 54.6631321,17.6957941 58.4960344,19.0539867 C62.9260972,20.6236275 72.7434109,24.6103964 82.6724319,33.5681363 C86.4195125,36.9485228 89.213299,40.162734 91.1129545,42.5474688 C91.9990099,40.7169618 92.7606497,38.8391799 93.3794566,36.9583756 C94.1928837,34.4858444 94.7925827,31.9298883 95.1616878,29.3622436 L95.745614,25.3018899 C93.3805905,22.9367925 90.20154,20.0188119 86.2013648,17.0113017 C84.2983741,15.5805957 78.2429032,11.1471907 70.4960167,7.57180031 C64.3532215,4.73668536 50.0613771,-1.859479 31.681762,0.500576706 C18.0405904,2.25218386 8.45160665,8.12804318 6.23727352,9.53194837 C4.62247088,10.5556389 3.05634175,11.6565471 1.5818421,12.8046279 L0.567436623,13.5943725 L0.416581549,14.9023147 C0.197682148,16.7990083 0.0633555425,18.7596644 0.0170561566,20.7285981 C-0.133794773,27.2091621 0.645338906,37.2267851 5.21436151,48.1468503 C6.53316341,51.2996219 8.11452713,54.3992871 9.91463833,57.3597996 C10.4133345,58.1798673 11.4130928,59.7557193 12.8969082,61.7830189 C12.7438474,60.6357235 12.6105477,59.4874209 12.4996953,58.3550587 C11.8504151,51.731927 11.8548841,44.9677901 12.5122395,38.2511501 C13.0562124,32.693955 13.9605212,28.2305559 14.6095303,25.4126792 C14.9045083,24.132208 15.1778398,23.0605083 15.3839281,22.2810605 C17.1439298,21.2043233 19.3745203,19.9987817 22.0470663,18.9045844 C23.6884072,18.2324593 26.5673085,17.1598076 30.2966327,16.3982085 Z" id="Path" fill="url(#linearGradient-5)"></path>
                    <path d="M73.4453905,94.9778803 C68.4679054,97.2611739 64.2327675,98.6753095 61.5193732,99.4979579 C60.286395,99.8719279 59.240962,100.160935 58.4770289,100.364604 C56.6726342,99.3215252 54.520431,97.9200117 52.2380329,96.0663873 C50.8362678,94.9278703 48.4672867,92.8779436 45.9298438,89.9095215 C45.0808045,88.9161722 42.4923094,85.8161404 40.0352107,81.3695543 C36.0064673,74.0784123 34.6581566,67.3851031 33.8613206,63.2664361 C32.9404027,58.5061184 31.3294492,47.7031274 33.8671172,34.3207499 C34.8248751,29.2705823 36.1257951,25.1591207 37.1789351,22.2641509 C35.1804979,22.3814732 33.2052891,22.634318 31.2999321,23.0167619 C28.7952842,23.5196026 26.3286815,24.2559722 23.9689917,25.2051111 L20.2374917,26.7059299 C19.4372653,30.0090173 18.5824293,34.3187996 18.0687871,39.4102051 C17.8244559,41.8323727 17.1478693,49.4803995 18.0558301,58.219113 C18.7757082,65.148413 20.4505584,81.2699848 31.7773932,96.5948424 C40.1840555,107.96894 50.0228175,113.647694 52.334566,114.935577 C54.0202923,115.874837 55.7469036,116.731875 57.4665173,117.483102 L58.6495857,118 L59.8326629,117.483102 C61.5483897,116.733544 63.2752765,115.876505 64.9645062,114.935969 C70.5235751,111.839285 78.6029307,106.143395 85.521837,96.5946208 C87.5195153,93.8380778 89.3390487,90.8723298 90.9297765,87.7796054 C91.370389,86.922788 92.1960916,85.2390636 93.1578947,82.8958807 C92.2649675,83.6054608 91.361206,84.298016 90.4594216,84.962168 C85.1858981,88.848413 79.4613115,92.2180928 73.4453905,94.9778803 Z" id="Path" fill="url(#linearGradient-6)"></path>
                    <path d="M117.985128,20.5735855 C117.939094,18.6165357 117.804116,16.6643878 117.583401,14.771142 L117.431647,13.4686146 L116.411099,12.6821395 C114.931038,11.5415453 113.355174,10.4449142 111.727905,9.42289821 C106.371129,6.06084695 97.5814951,1.77101052 86.1289034,0.429307098 C82.8226275,0.0415898301 79.4287218,-0.0844026292 76.041585,0.0549602999 C75.1031625,0.0936899446 73.2791704,0.205189616 70.8334393,0.525599778 C71.8721196,0.959737309 72.9018164,1.4119855 73.906752,1.87660511 C79.7856045,4.59243263 85.4535435,7.96440221 90.7534434,11.8981174 C95.1385327,15.1527884 98.4251962,18.1859099 100.460969,20.1707081 C101.385962,21.0726409 102.146951,21.8513702 102.696548,22.4241479 C102.713871,24.5379443 102.602414,27.1375403 102.175448,30.0779317 C101.913195,31.8838636 101.364242,34.998449 100.126682,38.7204138 C99.7125918,39.9659946 98.389824,43.7986216 95.8702237,48.1874843 C91.7388831,55.3840033 86.7821057,59.9154048 83.7155611,62.6748682 C80.1712974,65.8642344 71.890756,72.6790516 59.386955,77.1185647 C54.6682813,78.7939894 50.5685772,79.6979841 47.6140351,80.2132541 C48.7027164,81.9188801 49.8937548,83.5365797 51.1590014,85.0278369 C52.8226767,86.9879474 54.6635702,88.7981734 56.6302758,90.407617 L59.7404242,92.9528302 C62.9128634,92.0106073 66.9580784,90.6138491 71.4912444,88.5259094 C73.6480198,87.5325344 80.4105332,84.3120742 87.3046691,79.1484995 C92.7713401,75.0540242 105.489839,65.5278265 112.756833,47.8779448 C118.150321,34.778451 118.048121,23.2575407 117.985128,20.5735855 Z" id="Path" fill="url(#linearGradient-7)"></path>
                </g>
            </g>
        </g>
    </g>
</svg>